<svg width="487" height="50" viewBox="0 0 487 50" fill="none" xmlns="http://www.w3.org/2000/svg">
<path fill-rule="evenodd" clip-rule="evenodd" d="M425.797 49.3415C415.57 49.3415 408.199 43.2983 407.867 32.4073H415.371C415.703 38.6497 418.824 43.1655 425.731 43.1655C431.641 43.1655 433.7 39.8451 433.7 35.4621C433.7 29.6739 430.227 28.6377 423.516 26.6349L423.514 26.6345L423.498 26.6298L423.11 26.514L422.847 26.4353L422.61 26.3642C416.168 24.3055 409.394 21.8484 409.394 12.9497C409.394 4.91423 415.238 0 424.204 0C433.567 0 439.743 5.57831 440.274 15.0747H432.704C432.04 9.29719 429.45 6.17599 424.137 6.17599C419.489 6.17599 416.965 8.36747 416.965 12.5512C416.965 17.7311 420.618 18.9264 425.93 20.5202L426.037 20.5524C433.704 22.8655 441.271 25.1483 441.271 35.0637C441.271 43.2319 436.091 49.3415 425.797 49.3415ZM466.148 48.4118V7.23853H452.6V0.929719H487V7.23853H473.453V48.4118H466.148ZM364.461 32.3409C364.461 42.5014 368.778 49.3415 379.536 49.3415C390.294 49.3415 394.611 42.435 394.611 32.3409V0.929719H387.306V32.3409C387.306 39.7123 384.716 43.0327 379.536 43.0327C374.29 43.0327 371.766 39.7123 371.766 32.3409V0.929719H364.461V32.3409ZM320.127 48.4118V0.929719H337.128C345.761 0.929719 350.609 5.84395 350.609 14.6099C350.609 20.653 347.62 25.036 343.171 26.2314V26.3642C349.417 27.7572 349.886 36.7817 350.195 42.7193C350.342 45.5568 350.453 47.6893 351.14 47.9469V48.4118H343.503C342.958 47.8068 342.922 45.8543 342.877 43.4286V43.4282C342.774 37.8665 342.625 29.8174 336.198 29.8174H327.432V48.4118H320.127ZM327.432 23.5086H335.667C340.581 23.5086 343.37 20.653 343.37 15.0747C343.37 9.96127 341.046 7.23853 335.733 7.23853H327.432V23.5086ZM285.621 7.23853V48.4118H292.926V7.23853H306.473V0.929719H272.073V7.23853H285.621ZM229 48.4118V0.929719H237.168L251.977 37.4544H252.11V0.929719H259.282V48.4118H251.114L236.105 11.8871H235.973L236.172 48.4118H229ZM184.466 42.103V48.4118H213.553V42.103H202.662V7.23853H213.553V0.929719H184.466V7.23853H195.29V42.103H184.466ZM135.549 48.4118L149.96 0.929719H157.663L172.207 48.4118H164.37L161.382 36.9895H146.108L143.186 48.4118H135.549ZM148.034 30.8135H159.456L153.944 7.70339H153.679L148.034 30.8135ZM94.4676 0.929719V48.4118H101.773V29.8174H110.538C116.966 29.8174 117.115 37.8666 117.218 43.4282C117.263 45.8541 117.299 47.8067 117.843 48.4118H125.48V47.9469C124.793 47.6893 124.682 45.5568 124.535 42.7193C124.226 36.7817 123.757 27.7572 117.511 26.3642V26.2314C121.961 25.036 124.949 20.653 124.949 14.6099C124.949 5.84395 120.101 0.929719 111.468 0.929719H94.4676ZM110.007 23.5086H101.773V7.23853H110.074C115.386 7.23853 117.711 9.96127 117.711 15.0747C117.711 20.653 114.921 23.5086 110.007 23.5086ZM48.9382 48.4118V0.929719H66.0716C74.0406 0.929719 78.6892 5.37909 78.6892 12.8832C78.6892 18.6608 75.8337 21.4499 72.6461 22.7781V22.9109C76.7634 23.8407 80.2166 27.6259 80.2166 34.5324C80.2166 43.6304 74.9704 48.4118 66.9349 48.4118H48.9382ZM56.1768 42.103H65.7396C70.9194 42.103 72.7125 38.7826 72.7125 34.2668C72.7125 29.2861 70.3218 26.4306 66.3373 26.4306H56.1768V42.103ZM56.1768 20.653H65.1419C69.3256 20.653 71.1851 18.1959 71.1851 13.9458C71.1851 9.69564 68.9936 7.23853 65.474 7.23853H56.1768V20.653ZM27.6706 42.6915C31.6003 42.6915 34.7859 39.5058 34.7859 35.5762C34.7859 31.6465 31.6003 28.4609 27.6706 28.4609C23.741 28.4609 20.5554 31.6465 20.5554 35.5762C20.5554 39.5058 23.741 42.6915 27.6706 42.6915ZM34.7859 13.4399C34.7859 17.3695 31.6003 20.5551 27.6706 20.5551C23.741 20.5551 20.5554 17.3695 20.5554 13.4399C20.5554 9.51024 23.741 6.32463 27.6706 6.32463C31.6003 6.32463 34.7859 9.51024 34.7859 13.4399ZM7.11526 31.6234C11.0449 31.6234 14.2305 28.4378 14.2305 24.5081C14.2305 20.5785 11.0449 17.3929 7.11526 17.3929C3.18561 17.3929 0 20.5785 0 24.5081C0 28.4378 3.18561 31.6234 7.11526 31.6234Z" fill="white"/>
</svg>
